# xmcd
#
# Track frame offsets:
#	150
#	17207
#	29347
#	45400
#	64495
#	91382
#	110202
#	122192
#	138955
#	154217
#	165582
#
# Disc length: 2359 seconds
# Revision: 0
# Processed by: cddbd v1.5.2PL0 Copyright (c) Steve Scherf et al.
# Submitted via: dBpowerAMP V12.0
#
DISCID=9709350b
DTITLE=Eric Weissberg and Deliverance - Rural Free Delivery
DYEAR=1973
DGENRE=Bluegrass
TTITLE0=Uncle Pen
TTITLE1=Hard Hearted
TTITLE2=Thanks For Being You and Lovin Me
TTITLE3=Somewhere In Time
TTITLE4=Concrete Canyon Boogie
TTITLE5=Ride In The Country
TTITLE6=Scalded Cat
TTITLE7=Lend Me Your Heart
TTITLE8=Placed Is The Man
TTITLE9=Opening Day
TTITLE10=Till The End Of The World Rolls Around
EXTD=
EXTT0=
EXTT1=
EXTT2=
EXTT3=
EXTT4=
EXTT5=
EXTT6=
EXTT7=
EXTT8=
EXTT9=
EXTT10=
PLAYORDER=
